<mxfile host="app.diagrams.net" modified="2020-08-26T13:26:44.024Z" agent="5.0 (Windows)" etag="YSt5SrtLZ-vl9LQFDt-X" version="13.5.8" type="github">
  <diagram id="C5RBs43oDa-KdzZeNtuy" name="Page-1">
    <mxGraphModel dx="1038" dy="547" grid="1" gridSize="10" guides="1" tooltips="1" connect="1" arrows="1" fold="1" page="1" pageScale="1" pageWidth="1169" pageHeight="827" math="0" shadow="0">
      <root>
        <mxCell id="WIyWlLk6GJQsqaUBKTNV-0" />
        <mxCell id="WIyWlLk6GJQsqaUBKTNV-1" parent="WIyWlLk6GJQsqaUBKTNV-0" />
        <mxCell id="4oyoeLMCGXj9ybH9H02H-0" value="Pool" style="swimlane;html=1;childLayout=stackLayout;resizeParent=1;resizeParentMax=0;horizontal=1;startSize=20;horizontalStack=0;" vertex="1" parent="WIyWlLk6GJQsqaUBKTNV-1">
          <mxGeometry x="20" y="20" width="1130" height="380" as="geometry" />
        </mxCell>
        <mxCell id="4oyoeLMCGXj9ybH9H02H-1" value="Lane 1" style="swimlane;html=1;startSize=20;horizontal=0;" vertex="1" parent="4oyoeLMCGXj9ybH9H02H-0">
          <mxGeometry y="20" width="1130" height="120" as="geometry" />
        </mxCell>
        <mxCell id="4oyoeLMCGXj9ybH9H02H-2" value="Lane 2" style="swimlane;html=1;startSize=20;horizontal=0;" vertex="1" parent="4oyoeLMCGXj9ybH9H02H-0">
          <mxGeometry y="140" width="1130" height="120" as="geometry" />
        </mxCell>
        <mxCell id="4oyoeLMCGXj9ybH9H02H-3" value="Lane 3" style="swimlane;html=1;startSize=20;horizontal=0;" vertex="1" parent="4oyoeLMCGXj9ybH9H02H-0">
          <mxGeometry y="260" width="1130" height="120" as="geometry" />
        </mxCell>
      </root>
    </mxGraphModel>
  </diagram>
</mxfile>
